<?xml version="1.0" encoding="UTF-8"?>
<svg version="1.1" xmlns="http://www.w3.org/2000/svg" width="32" height="32">
<path d="M0 0 C5.94 0 11.88 0 18 0 C18 0.66 18 1.32 18 2 C18.99 2.33 19.98 2.66 21 3 C21 3.66 21 4.32 21 5 C21.66 5 22.32 5 23 5 C23 10.94 23 16.88 23 23 C22.34 23 21.68 23 21 23 C20.67 23.99 20.34 24.98 20 26 C19.34 26 18.68 26 18 26 C18 26.66 18 27.32 18 28 C12.06 28 6.12 28 0 28 C0 27.34 0 26.68 0 26 C-0.99 25.67 -1.98 25.34 -3 25 C-3 24.34 -3 23.68 -3 23 C-3.66 23 -4.32 23 -5 23 C-5 17.06 -5 11.12 -5 5 C-4.34 5 -3.68 5 -3 5 C-2.67 4.01 -2.34 3.02 -2 2 C-1.34 2 -0.68 2 0 2 C0 1.34 0 0.68 0 0 Z " fill="#526D7B" transform="translate(7,2)"/>
<path d="M0 0 C4.1765625 -0.0309375 4.1765625 -0.0309375 8.4375 -0.0625 C9.75512329 -0.07615601 9.75512329 -0.07615601 11.09936523 -0.09008789 C13.06645974 -0.09723091 15.03353621 -0.05031893 17 0 C18 1 18 1 18.09765625 4.81640625 C18.09191138 6.39847047 18.07889593 7.98051031 18.0625 9.5625 C18.041875 12.346875 18.02125 15.13125 18 18 C12.06 18 6.12 18 0 18 C0 12.06 0 6.12 0 0 Z " fill="#0680BA" transform="translate(7,7)"/>
<path d="M0 0 C0 5.94 0 11.88 0 18 C5.94 18 11.88 18 18 18 C18.33 18.99 18.66 19.98 19 21 C18.67 21.66 18.34 22.32 18 23 C12.06 23 6.12 23 0 23 C0 22.34 0 21.68 0 21 C-0.99 20.67 -1.98 20.34 -3 20 C-3 19.34 -3 18.68 -3 18 C-3.66 18 -4.32 18 -5 18 C-5.0809723 15.56183415 -5.14046972 13.12635616 -5.1875 10.6875 C-5.21263672 9.99720703 -5.23777344 9.30691406 -5.26367188 8.59570312 C-5.33777767 3.4824036 -5.33777767 3.4824036 -3.61328125 1.01953125 C-2 0 -2 0 0 0 Z " fill="#445B67" transform="translate(7,7)"/>
<path d="M0 0 C5.28 0 10.56 0 16 0 C16 5.28 16 10.56 16 16 C13.36 14.02 10.72 12.04 8 10 C7.01 10.495 7.01 10.495 6 11 C5.67 9.68 5.34 8.36 5 7 C4.34 7 3.68 7 3 7 C3 7.66 3 8.32 3 9 C3.66 9 4.32 9 5 9 C5 9.66 5 10.32 5 11 C4.01 10.67 3.02 10.34 2 10 C2.226875 9.0925 2.45375 8.185 2.6875 7.25 C3.40625929 3.60582441 3.40625929 3.60582441 0 0 Z " fill="#34A8DD" transform="translate(8,8)"/>
</svg>
